<svg width="60" height="60" viewBox="0 0 60 60" fill="none" xmlns="http://www.w3.org/2000/svg">
<g clip-path="url(#clip0)">
<path d="M59.6568 51.9528L57.7952 50.0913V46.6966C57.7952 46.3858 57.6717 46.0878 57.452 45.8679L53.9863 42.4022V39.4963C53.9863 39.1856 53.8628 38.8875 53.643 38.6677L52.1689 37.1936C52.8267 36.99 53.4459 36.6293 53.9658 36.1096C54.7936 35.2817 55.2496 34.1809 55.2496 33.0101C55.2496 31.8393 54.7936 30.7386 53.9658 29.9108L49.9447 25.8896C49.4871 25.432 48.7453 25.432 48.2873 25.8896C47.8297 26.3472 47.8297 27.0892 48.2873 27.5468L52.3084 31.568C52.6936 31.9532 52.9058 32.4654 52.9058 33.0102C52.9058 33.555 52.6936 34.0673 52.3085 34.4525C51.5248 35.2361 50.2574 35.2459 49.4596 34.4845L35.9073 20.9318C37.4468 20.7154 39.0323 20.8492 40.5158 21.3344C41.1307 21.5356 41.7926 21.2 41.9939 20.5849C42.1951 19.9696 41.8595 19.308 41.2444 19.1068C39.1041 18.4067 36.7914 18.3032 34.6001 18.7905L24.9079 9.09825C24.6434 8.83376 24.2679 8.71165 23.8993 8.76895C21.9141 9.07739 19.8803 8.4134 18.4594 6.99262L17.8567 6.39004C17.3992 5.93243 16.6573 5.93254 16.1994 6.39004L12.4369 10.1527C11.9793 10.6103 11.9793 11.3523 12.4369 11.81L13.0395 12.4125C14.4604 13.8333 15.1245 15.8669 14.8158 17.8523C14.7585 18.2218 14.8808 18.5965 15.1452 18.8609L20.18 23.8958L11.6825 31.9039C10.0484 33.4441 7.91156 34.2923 5.66602 34.2923H1.17188C0.524766 34.2923 0 34.817 0 35.4642C0 36.1113 0.524766 36.636 1.17188 36.636H5.6659C8.51145 36.636 11.2191 35.5612 13.2899 33.6095L21.8379 25.5538L23.9122 27.6282L23.26 29.706C22.6812 31.5504 23.2801 33.5255 24.7861 34.7376C26.0148 35.7264 27.6444 36.0272 29.145 35.5424L36.4044 33.1975C37.5176 32.8383 38.7449 33.3247 39.322 34.3554L39.3645 34.4311C39.7004 35.031 39.7604 35.7465 39.529 36.3937C39.2977 37.0407 38.7982 37.5556 38.1586 37.8065C36.1361 38.5995 33.7058 39.5519 31.9323 40.2452C30.0704 40.9729 28.5693 42.4867 27.8136 44.3986C26.137 48.6411 21.9744 51.4864 17.4462 51.4864C17.4374 51.4864 17.4281 51.4864 17.4193 51.4864H1.17188C0.524766 51.4864 0 52.0111 0 52.6583C0 53.3054 0.524766 53.8301 1.17188 53.8301H17.4165H17.4502C20.1529 53.8301 22.7705 53.0175 25.0219 51.4795C27.2747 49.9402 28.9938 47.7896 29.9934 45.26C30.4745 44.0427 31.3893 43.065 32.527 42.5389L37.0467 47.0586C37.8746 47.8864 38.9754 48.3424 40.1462 48.3424C41.3169 48.3424 42.4177 47.8864 43.2455 47.0587C43.4025 46.9016 43.5461 46.7343 43.676 46.5583L44.7142 47.5965C44.934 47.8162 45.232 47.9397 45.5428 47.9397H48.4487L51.9144 51.4054C52.1343 51.6251 52.4323 51.7486 52.743 51.7486H56.1377L57.9993 53.6102C58.2281 53.8389 58.528 53.9534 58.8279 53.9534C59.1278 53.9534 59.4277 53.8389 59.6565 53.6102C60.1145 53.1524 60.1145 52.4104 59.6568 51.9528ZM43.047 42.6143L39.9356 39.503C40.7599 38.9456 41.3951 38.1366 41.7361 37.1825C42.0506 36.3027 42.0938 35.3599 41.8759 34.4703L44.0018 32.3444L48.6609 37.0002L43.047 42.6143ZM34.688 31.2888L32.4457 32.0131L27.9889 27.5563L33.6014 21.9439L38.8172 27.1597L34.688 31.2888ZM32.3627 19.8679L25.9147 26.3159L17.631 18.0323L24.079 11.5841L32.3627 19.8679ZM14.9186 10.9856L17.0323 8.87172C18.2367 9.98958 19.7298 10.7296 21.3169 11.0317L17.0784 15.2702C16.7762 13.6832 16.0363 12.1899 14.9186 10.9856ZM28.4246 33.312C27.6773 33.5532 26.8668 33.4033 26.2555 32.9115C25.5061 32.3084 25.2081 31.3256 25.4961 30.4077L25.9811 28.8631L29.9405 32.8224L28.4246 33.312ZM38.3904 30.9012L40.4746 28.817L42.3447 30.6871L40.7186 32.3132C40.0874 31.6227 39.2745 31.1375 38.3904 30.9012ZM40.1463 45.9986C39.6015 45.9986 39.0893 45.7864 38.7041 45.4012L34.9025 41.5995C35.7943 41.2503 36.7341 40.8821 37.6437 40.5256L41.9764 44.8584C41.8785 45.0574 41.7489 45.2409 41.5884 45.4012C41.2032 45.7865 40.691 45.9986 40.1463 45.9986ZM44.7043 44.2717L50.3184 38.6576L51.6427 39.9818V42.529L48.5757 45.5959H46.0286L44.7043 44.2717ZM50.6551 46.8312L52.8779 44.6084L55.4516 47.1821V49.4049H53.2288L50.6551 46.8312Z" fill="#F13F3F"/>
<path d="M45.3879 24.1616C45.0785 24.1616 44.7773 24.0362 44.5582 23.8183C44.3404 23.6003 44.216 23.2979 44.216 22.9897C44.216 22.6804 44.3404 22.378 44.5582 22.1601C44.7762 21.9421 45.0785 21.8179 45.3879 21.8179C45.6961 21.8179 45.9973 21.9421 46.2154 22.1601C46.4345 22.3792 46.5598 22.6804 46.5598 22.9897C46.5598 23.2979 46.4345 23.6003 46.2154 23.8183C45.9973 24.0362 45.696 24.1616 45.3879 24.1616Z" fill="#F13F3F"/>
</g>
<defs>
<clipPath id="clip0">
<rect width="60" height="60" fill="white"/>
</clipPath>
</defs>
</svg>
