<svg width="60" height="60" viewBox="0 0 60 60" fill="none" xmlns="http://www.w3.org/2000/svg">
<g clip-path="url(#clip0)">
<path d="M56.6822 9.97224L58.6815 7.97295C60.3293 6.325 60.3293 3.64388 58.6815 1.99605C57.8832 1.19762 56.822 0.758153 55.693 0.758153C54.5641 0.758153 53.5028 1.19774 52.7045 1.99605L51.8193 2.8812C51.6187 2.27965 51.2794 1.71479 50.8011 1.23676C49.1533 -0.41107 46.4723 -0.410835 44.8242 1.23676L43.1761 2.88495C42.9712 2.27297 42.6257 1.71233 42.1561 1.24262C41.3578 0.444313 40.2965 0.00472675 39.1676 0.00472675C38.0386 0.00472675 36.9773 0.444313 36.179 1.24262L26.7229 10.6986C23.7404 13.6812 22.0205 17.7665 21.9588 21.9756L0.425989 43.5084C-0.0316449 43.9661 -0.0316449 44.7081 0.425989 45.1659C0.883741 45.6234 1.62557 45.6234 2.08343 45.1659L19.485 27.7642L32.5518 40.8309L15.3824 58.0002C14.9247 58.4579 14.9247 59.1999 15.3824 59.6577C15.6112 59.8865 15.9111 60.0009 16.211 60.0009C16.5109 60.0009 16.8108 59.8865 17.0397 59.6577C17.0397 59.6577 35.0385 41.6589 35.0388 41.6586L38.3009 38.3964C43.1748 38.7392 48.0357 37.7493 52.3934 35.5212L55.9741 33.6906C57.7772 32.7687 58.67 30.69 58.097 28.7479C57.5151 26.775 55.6092 25.5164 53.567 25.7555L49.0042 26.2896L58.3265 16.9673C59.9743 15.3193 59.9743 12.6382 58.3265 10.9903C57.8486 10.5121 57.2837 10.1729 56.6822 9.97224ZM21.1423 26.1067L23.1311 24.118L36.1979 37.1848L34.2091 39.1735L21.1423 26.1067ZM56.6693 15.3099L44.9624 27.0168C44.6096 27.3697 44.519 27.9073 44.7363 28.3563C44.9537 28.8054 45.4317 29.0668 45.9273 29.0096L53.8395 28.0836C54.7436 27.9772 55.5907 28.5357 55.8489 29.4111C56.1031 30.2727 55.707 31.1947 54.9073 31.6037L51.3265 33.4344C47.3239 35.4807 42.8561 36.3823 38.3797 36.0521L24.3038 21.9761C24.3649 18.3849 25.8348 14.9013 28.3801 12.356L37.8362 2.90007C38.5704 2.16598 39.7646 2.1661 40.4986 2.90007C41.2318 3.63334 41.2327 4.82588 40.5009 5.55997L33.1154 12.9455L33.1025 12.9583L33.095 12.9658C32.6373 13.4234 32.6373 14.1655 33.095 14.6232C33.5527 15.0807 34.2946 15.0807 34.7524 14.6232L46.4816 2.89397C47.2158 2.15988 48.41 2.16 49.1439 2.89397C49.878 3.62806 49.878 4.82225 49.1439 5.55634L37.4148 17.2855C36.9572 17.7431 36.9572 18.4852 37.4148 18.9429C37.8725 19.4004 38.6144 19.4004 39.0722 18.9429L54.3618 3.65338C54.7173 3.29782 55.1901 3.10199 55.6929 3.10199C56.1957 3.10199 56.6684 3.29782 57.0239 3.65338C57.758 4.38735 57.758 5.58165 57.0239 6.31562L41.742 21.5978C41.2843 22.0554 41.2843 22.7975 41.742 23.2552C42.1997 23.7127 42.9416 23.7127 43.3994 23.2552L54.007 12.6476C54.7409 11.9135 55.9351 11.9133 56.6694 12.6476C57.4033 13.3815 57.4033 14.5759 56.6693 15.3099Z" fill="#F13F3F"/>
<path d="M18.0106 50.0637C17.6073 49.5579 16.8698 49.4747 16.3636 49.8785C15.0027 50.9642 13.159 51.079 11.7002 50.2723L16.548 45.4246L17.823 46.6996C18.0519 46.9284 18.3518 47.0429 18.6517 47.0429C18.9516 47.0429 19.2515 46.9284 19.4803 46.6996C19.938 46.242 19.938 45.4999 19.4803 45.0422L18.2053 43.7671L20.0051 41.9673C20.4828 42.1948 21.0013 42.3093 21.5198 42.3093C22.4202 42.3093 23.3205 41.9666 24.0059 41.2813C25.3767 39.9105 25.3767 37.68 24.0058 36.309C22.6351 34.9384 20.4046 34.9386 19.0338 36.309C17.9536 37.3893 17.7253 39.0034 18.3477 40.31L16.548 42.1098L15.2729 40.8348C14.8153 40.3774 14.0735 40.3772 13.6155 40.8348C13.1578 41.2924 13.1578 42.0345 13.6155 42.4922L14.8905 43.7673L10.0428 48.615C9.23613 47.1561 9.35086 45.3124 10.4366 43.9515C10.8403 43.4456 10.7573 42.7082 10.2514 42.3045C9.74556 41.9007 9.00807 41.9839 8.60435 42.4897C6.52114 45.101 6.73314 48.8533 9.09749 51.2177C10.3735 52.4936 12.0532 53.1426 13.7398 53.1426C15.1788 53.1425 16.6232 52.67 17.8252 51.7109C18.3313 51.307 18.4142 50.5697 18.0106 50.0637ZM20.6912 37.9665C20.9197 37.7381 21.2198 37.6238 21.5199 37.6238C21.8201 37.6238 22.1201 37.7381 22.3485 37.9665C22.5699 38.1879 22.6919 38.4821 22.6919 38.7952C22.6919 39.1082 22.5699 39.4026 22.3485 39.6238C22.1271 39.8451 21.833 39.9671 21.5199 39.9671C21.2068 39.9671 20.9125 39.8452 20.6913 39.6238C20.47 39.4024 20.348 39.1082 20.348 38.7952C20.348 38.4821 20.4699 38.1877 20.6912 37.9665Z" fill="#F13F3F"/>
</g>
<defs>
<clipPath id="clip0">
<rect width="60" height="60" fill="white"/>
</clipPath>
</defs>
</svg>
