<svg width="60" height="60" viewBox="0 0 60 60" fill="none" xmlns="http://www.w3.org/2000/svg">
<g clip-path="url(#clip0)">
<path d="M58.2908 24.8509C58.0557 23.665 57.3204 22.6384 56.2734 22.0338L53.9522 20.6936C53.683 20.5382 53.3633 20.4962 53.063 20.5766C52.7627 20.6571 52.5068 20.8534 52.3514 21.1225L52.2022 21.3809L46.9157 18.3287C46.9151 18.3283 46.5086 18.0936 46.5086 18.0936C47.2398 15.2989 47.2617 12.3623 46.5604 9.54171C46.2091 8.12902 45.6831 6.77761 44.9986 5.51363L48.3732 4.60941C48.9983 4.44195 49.3693 3.79929 49.2019 3.17409C49.0343 2.54902 48.3921 2.178 47.7666 2.34546L43.6753 3.44175C43.0671 2.62542 42.3844 1.86007 41.6319 1.15577C40.7962 0.373548 39.7073 -0.0359052 38.562 0.00136038C37.418 0.0390947 36.3572 0.520149 35.575 1.35581C34.7927 2.19148 34.3827 3.28179 34.4204 4.42577C34.4368 4.92394 34.5375 5.40628 34.7148 5.85675C34.1885 6.08281 33.8934 6.66558 34.046 7.23499C34.1863 7.75859 34.6597 8.10394 35.1772 8.10394C35.2775 8.10394 35.3797 8.09093 35.4812 8.06374L36.2227 7.86511C37.6437 9.40554 38.4428 11.3939 38.5 13.4697L29.4 8.21609C28.8397 7.89253 28.1229 8.08449 27.7992 8.64499C27.4755 9.2055 27.6676 9.92222 28.2281 10.2458L29.5706 11.0209C29.3532 11.2303 29.1634 11.4711 29.0084 11.7398L24.8572 18.9298C24.7004 19.2015 24.5884 19.4867 24.517 19.777L22.6678 18.7093C21.7365 18.1718 20.6516 18.0289 19.613 18.3071C18.5742 18.5854 17.7061 19.2516 17.1684 20.1828C16.2155 21.8334 16.569 23.8848 17.9046 25.1346L16.4093 27.7246C14.7554 27.071 12.8228 27.7099 11.9075 29.2952L3.4895 43.8752C2.57426 45.4604 2.98711 47.4537 4.38012 48.5592L2.37141 52.0384C2.28715 52.1842 2.23536 52.3464 2.21965 52.5143L1.63419 58.7172C1.59106 59.1735 1.81794 59.613 2.21497 59.8422C2.39684 59.9472 2.59911 59.9992 2.80079 59.9992C3.03938 59.9992 3.27715 59.9265 3.47954 59.7827L8.55879 56.1743C8.69614 56.0766 8.81075 55.9507 8.895 55.8049L10.9042 52.3249C11.3374 52.4961 11.7894 52.5799 12.2377 52.5799C13.5004 52.5799 14.7302 51.925 15.4056 50.7551L23.8234 36.1751C24.7386 34.5898 24.3258 32.5966 22.9327 31.4912L24.3752 28.9926L25.6072 29.7039C26.688 30.328 27.8691 30.6243 29.0356 30.6243C31.0416 30.6243 33.0036 29.7471 34.3327 28.1507L45.2834 34.4731C45.2864 34.8113 45.3318 35.1514 45.4216 35.4867C45.7002 36.5266 46.3671 37.3957 47.2995 37.9339C47.919 38.2916 48.6148 38.4739 49.3147 38.4739C49.7534 38.4739 50.1937 38.4023 50.618 38.2573C51.7192 37.8811 52.6037 37.0474 53.0447 35.9704C54.178 33.2021 55.6773 30.5962 57.5011 28.2249C58.2381 27.2663 58.5259 26.0367 58.2908 24.8509ZM45.9753 32.166L43.389 30.6728C43.6064 30.4634 43.7962 30.2226 43.9513 29.9539L48.1025 22.7639C48.2593 22.4922 48.3714 22.2071 48.4427 21.9168L51.0301 23.4106L45.9753 32.166ZM42.5955 18.68C42.7486 18.68 42.9035 18.7189 43.0454 18.8007L45.743 20.3581C46.1739 20.6075 46.322 21.1609 46.073 21.5921L41.9217 28.7821C41.801 28.9912 41.6062 29.1407 41.373 29.2032C41.1398 29.2657 40.8963 29.2335 40.6873 29.113L37.9909 27.5561C37.7818 27.4354 37.6323 27.2407 37.5698 27.0075C37.5074 26.7744 37.5395 26.5309 37.6602 26.3217L41.8113 19.1316C41.9786 18.8421 42.2829 18.68 42.5955 18.68ZM37.2858 2.95765C37.6402 2.57913 38.1207 2.36117 38.6391 2.34406C39.1563 2.32601 39.6513 2.51269 40.03 2.86706C43.8469 6.43988 45.4812 11.8055 44.3927 16.8723L40.7945 14.7948C41.1293 11.3982 39.8838 8.04909 37.3764 5.70183C36.9977 5.34745 36.7798 4.86687 36.7627 4.34855C36.7455 3.83023 36.9313 3.33617 37.2858 2.95765ZM26.8868 20.1017L31.0379 12.9117C31.2052 12.6221 31.5095 12.46 31.822 12.46C31.9753 12.46 32.1305 12.4991 32.2724 12.581L34.9689 14.1378C35.4002 14.3871 35.5486 14.9408 35.2994 15.3723L31.1482 22.5623C31.0275 22.7714 30.8327 22.9209 30.5995 22.9834C30.3663 23.046 30.1228 23.0137 29.9138 22.893L27.2175 21.3363C27.0084 21.2156 26.8589 21.0207 26.7964 20.7875C26.734 20.5543 26.7661 20.3108 26.8868 20.1017ZM33.1781 23.7341L37.3294 16.544C37.4862 16.2724 37.5982 15.9873 37.6696 15.697L40.3451 17.2418C40.1293 17.4487 39.9384 17.6884 39.7816 17.96L35.6305 25.15C35.4754 25.4187 35.3617 25.7034 35.289 25.9965L32.6157 24.4531C32.8332 24.2435 33.023 24.0026 33.1781 23.7341ZM16.3546 44.4239L8.49797 39.8879L10.9583 35.6264L18.8149 40.1625L16.3546 44.4239ZM6.99305 54.4114L4.20797 56.39L4.52895 52.9887L6.38989 49.7655L8.85399 51.1882L6.99305 54.4114ZM13.3759 49.583C13.0156 50.2072 12.2145 50.422 11.5902 50.0615L5.99778 46.8328C5.37352 46.4723 5.15883 45.6712 5.5193 45.0469L7.3261 41.9175L15.1827 46.4534L13.3759 49.583ZM21.7936 35.0032L19.9868 38.1327L12.1302 33.5966L13.937 30.4671C14.1789 30.0481 14.6191 29.8137 15.0713 29.8137C15.2929 29.8137 15.5174 29.8701 15.7227 29.9886L21.3151 33.2173C21.9393 33.5778 22.1539 34.3789 21.7936 35.0032ZM20.9228 30.2845L18.4587 28.8618L19.8813 26.3977L22.3454 27.8204L20.9228 30.2845ZM26.7791 27.674L19.8137 23.6525C19.0105 23.1887 18.7343 22.158 19.198 21.3548C19.4227 20.9657 19.7854 20.6874 20.2194 20.571C20.6536 20.4546 21.1068 20.5144 21.4958 20.7391L32.2566 26.9519C30.8406 28.3685 28.5942 28.7219 26.7791 27.674ZM55.6432 26.7957C53.692 29.3326 52.088 32.1205 50.8755 35.0821C50.6883 35.5394 50.3277 35.8794 49.86 36.0392C49.3923 36.1991 48.8992 36.151 48.4712 35.9039C48.081 35.6786 47.802 35.3149 47.6854 34.8798C47.5687 34.4445 47.6286 33.9901 47.8539 33.5998L53.795 23.3092L55.1013 24.0635C55.5701 24.3342 55.8864 24.7757 55.9917 25.3067C56.0971 25.8378 55.9733 26.3666 55.6432 26.7957Z" fill="#F13F3F"/>
</g>
<defs>
<clipPath id="clip0">
<rect width="60" height="60" fill="white"/>
</clipPath>
</defs>
</svg>
