<svg width="425" height="60" viewBox="0 0 425 60" fill="none" xmlns="http://www.w3.org/2000/svg">
<path d="M89.2952 23.1773C93.7615 20.6977 99.021 20.0649 103.749 18.1212C111.523 14.9251 117.827 8.06492 120 2.89455e-06C116.672 5.3587 108.964 9.2444 102.229 11.698C97.99 13.2424 93.5284 14.1656 89.3752 15.9245C85.2219 17.6832 81.2573 20.467 79.3988 24.55C77.4446 28.8435 78.1034 33.8375 77.0355 38.4278C76.1174 42.3744 73.8754 46.006 70.7489 48.6109C67.2342 51.5393 63.5835 54.8042 64.1834 60C66.5057 53.999 76.4066 53.2737 83.2611 51.7174C90.1154 50.1611 96.3266 48.2106 101.817 43.8521C105.8 40.6905 109.589 36.5578 110.654 31.6088C106.936 36.6383 100.438 38.6203 94.4409 40.4926C88.4444 42.3648 81.9862 44.8424 78.938 50.2969C80.8453 45.2225 85.828 41.9548 90.8196 39.7622C95.8111 37.5697 101.193 36.0457 105.569 32.8079C109.196 30.1243 111.967 26.3186 113.395 22.0591C110.421 26.8603 101.467 28.5917 94.2616 31.0807C87.6914 33.3501 81.3405 37.0473 78.4803 43.4288C79.8047 37.5156 85.0654 33.2366 90.579 30.6342C96.0926 28.0316 102.138 26.6189 107.52 23.7571C112.901 20.8952 117.791 16.0217 118.247 9.98116C115.794 14.6135 110.752 17.2991 105.757 18.9793C100.762 20.6596 95.5993 21.8813 90.8547 24.1669C85.0542 26.961 81.1712 31.9521 79.5323 37.5379C80.2918 31.5961 84.0267 26.1021 89.2952 23.1773" fill="white"/>
<path d="M30.7048 23.1773C26.2385 20.6977 20.9791 20.0649 16.2509 18.1212C8.47688 14.9251 2.17329 8.06492 0 2.89455e-06C3.32821 5.3587 11.0365 9.2444 17.7711 11.698C22.0101 13.2424 26.4716 14.1656 30.6249 15.9245C34.7781 17.6832 38.7428 20.467 40.6013 24.55C42.5555 28.8435 41.8966 33.8375 42.9646 38.4278C43.8827 42.3744 46.1247 46.006 49.2512 48.6109C52.7659 51.5393 56.4166 54.8042 55.8166 60C53.4942 53.999 43.5935 53.2737 36.739 51.7174C29.8847 50.1611 23.6735 48.2106 18.1832 43.8521C14.2005 40.6905 10.4106 36.5578 9.34644 31.6088C13.0638 36.6383 19.5625 38.6203 25.5591 40.4926C31.5556 42.3648 38.0138 44.8424 41.0619 50.2969C39.1547 45.2225 34.172 41.9548 29.1804 39.7622C24.189 37.5697 18.8066 36.0457 14.4308 32.8079C10.8039 30.1243 8.03307 26.3186 6.60507 22.0591C9.57869 26.8603 18.5327 28.5917 25.7384 31.0807C32.3086 33.3501 38.6595 37.0473 41.5198 43.4288C40.1953 37.5156 34.9347 33.2366 29.4211 30.6342C23.9075 28.0316 17.8617 26.6189 12.4804 23.7571C7.09901 20.8952 2.20888 16.0217 1.75315 9.98116C4.20636 14.6135 9.24811 17.2991 14.2432 18.9793C19.2384 20.6596 24.4007 21.8813 29.1453 24.1669C34.9459 26.961 38.8289 31.9521 40.4677 37.5379C39.7082 31.5961 35.9734 26.1021 30.7048 23.1773" fill="white"/>
<path d="M138.208 22.552H130.144V17.8H152.104V22.552H144.04V43H138.208V22.552ZM170.572 37.6H158.872L156.64 43H150.664L161.896 17.8H167.656L178.924 43H172.804L170.572 37.6ZM168.736 33.172L164.74 23.524L160.744 33.172H168.736ZM185.493 22.552H177.429V17.8H199.389V22.552H191.325V43H185.493V22.552ZM208.099 22.552H200.035V17.8H221.995V22.552H213.931V43H208.099V22.552ZM236.985 43.432C234.369 43.432 232.005 42.868 229.893 41.74C227.805 40.612 226.161 39.064 224.961 37.096C223.785 35.104 223.197 32.872 223.197 30.4C223.197 27.928 223.785 25.708 224.961 23.74C226.161 21.748 227.805 20.188 229.893 19.06C232.005 17.932 234.369 17.368 236.985 17.368C239.601 17.368 241.953 17.932 244.041 19.06C246.129 20.188 247.773 21.748 248.973 23.74C250.173 25.708 250.773 27.928 250.773 30.4C250.773 32.872 250.173 35.104 248.973 37.096C247.773 39.064 246.129 40.612 244.041 41.74C241.953 42.868 239.601 43.432 236.985 43.432ZM236.985 38.464C238.473 38.464 239.817 38.128 241.017 37.456C242.217 36.76 243.153 35.8 243.825 34.576C244.521 33.352 244.869 31.96 244.869 30.4C244.869 28.84 244.521 27.448 243.825 26.224C243.153 25 242.217 24.052 241.017 23.38C239.817 22.684 238.473 22.336 236.985 22.336C235.497 22.336 234.153 22.684 232.953 23.38C231.753 24.052 230.805 25 230.109 26.224C229.437 27.448 229.101 28.84 229.101 30.4C229.101 31.96 229.437 33.352 230.109 34.576C230.805 35.8 231.753 36.76 232.953 37.456C234.153 38.128 235.497 38.464 236.985 38.464ZM267.36 43.432C264.744 43.432 262.38 42.868 260.268 41.74C258.18 40.612 256.536 39.064 255.336 37.096C254.16 35.104 253.572 32.872 253.572 30.4C253.572 27.928 254.16 25.708 255.336 23.74C256.536 21.748 258.18 20.188 260.268 19.06C262.38 17.932 264.744 17.368 267.36 17.368C269.976 17.368 272.328 17.932 274.416 19.06C276.504 20.188 278.148 21.748 279.348 23.74C280.548 25.708 281.148 27.928 281.148 30.4C281.148 32.872 280.548 35.104 279.348 37.096C278.148 39.064 276.504 40.612 274.416 41.74C272.328 42.868 269.976 43.432 267.36 43.432ZM267.36 38.464C268.848 38.464 270.192 38.128 271.392 37.456C272.592 36.76 273.528 35.8 274.2 34.576C274.896 33.352 275.244 31.96 275.244 30.4C275.244 28.84 274.896 27.448 274.2 26.224C273.528 25 272.592 24.052 271.392 23.38C270.192 22.684 268.848 22.336 267.36 22.336C265.872 22.336 264.528 22.684 263.328 23.38C262.128 24.052 261.18 25 260.484 26.224C259.812 27.448 259.476 28.84 259.476 30.4C259.476 31.96 259.812 33.352 260.484 34.576C261.18 35.8 262.128 36.76 263.328 37.456C264.528 38.128 265.872 38.464 267.36 38.464Z" fill="#F13F3F"/>
<path d="M304.006 43.432C302.014 43.432 300.082 43.168 298.21 42.64C296.362 42.088 294.874 41.38 293.746 40.516L295.726 36.124C296.806 36.916 298.09 37.552 299.578 38.032C301.066 38.512 302.554 38.752 304.042 38.752C305.698 38.752 306.922 38.512 307.714 38.032C308.506 37.528 308.902 36.868 308.902 36.052C308.902 35.452 308.662 34.96 308.182 34.576C307.726 34.168 307.126 33.844 306.382 33.604C305.662 33.364 304.678 33.1 303.43 32.812C301.51 32.356 299.938 31.9 298.714 31.444C297.49 30.988 296.434 30.256 295.546 29.248C294.682 28.24 294.25 26.896 294.25 25.216C294.25 23.752 294.646 22.432 295.438 21.256C296.23 20.056 297.418 19.108 299.002 18.412C300.61 17.716 302.566 17.368 304.87 17.368C306.478 17.368 308.05 17.56 309.586 17.944C311.122 18.328 312.466 18.88 313.618 19.6L311.818 24.028C309.49 22.708 307.162 22.048 304.834 22.048C303.202 22.048 301.99 22.312 301.198 22.84C300.43 23.368 300.046 24.064 300.046 24.928C300.046 25.792 300.49 26.44 301.378 26.872C302.29 27.28 303.67 27.688 305.518 28.096C307.438 28.552 309.01 29.008 310.234 29.464C311.458 29.92 312.502 30.64 313.366 31.624C314.254 32.608 314.698 33.94 314.698 35.62C314.698 37.06 314.29 38.38 313.474 39.58C312.682 40.756 311.482 41.692 309.874 42.388C308.266 43.084 306.31 43.432 304.006 43.432ZM335.279 37.6H323.579L321.347 43H315.371L326.603 17.8H332.363L343.631 43H337.511L335.279 37.6ZM333.443 33.172L329.447 23.524L325.451 33.172H333.443ZM346.246 17.8H352.078V38.248H364.714V43H346.246V17.8ZM379.755 43.432C377.139 43.432 374.775 42.868 372.663 41.74C370.575 40.612 368.931 39.064 367.731 37.096C366.555 35.104 365.967 32.872 365.967 30.4C365.967 27.928 366.555 25.708 367.731 23.74C368.931 21.748 370.575 20.188 372.663 19.06C374.775 17.932 377.139 17.368 379.755 17.368C382.371 17.368 384.723 17.932 386.811 19.06C388.899 20.188 390.543 21.748 391.743 23.74C392.943 25.708 393.543 27.928 393.543 30.4C393.543 32.872 392.943 35.104 391.743 37.096C390.543 39.064 388.899 40.612 386.811 41.74C384.723 42.868 382.371 43.432 379.755 43.432ZM379.755 38.464C381.243 38.464 382.587 38.128 383.787 37.456C384.987 36.76 385.923 35.8 386.595 34.576C387.291 33.352 387.639 31.96 387.639 30.4C387.639 28.84 387.291 27.448 386.595 26.224C385.923 25 384.987 24.052 383.787 23.38C382.587 22.684 381.243 22.336 379.755 22.336C378.267 22.336 376.923 22.684 375.723 23.38C374.523 24.052 373.575 25 372.879 26.224C372.207 27.448 371.871 28.84 371.871 30.4C371.871 31.96 372.207 33.352 372.879 34.576C373.575 35.8 374.523 36.76 375.723 37.456C376.923 38.128 378.267 38.464 379.755 38.464ZM421.038 17.8V43H416.25L403.686 27.7V43H397.926V17.8H402.75L415.277 33.1V17.8H421.038Z" fill="white"/>
</svg>
